<?xml version="1.0" encoding="iso-8859-1"?>
<!-- Uploaded to: SVG Repo, www.svgrepo.com, Generator: SVG Repo Mixer Tools -->
<svg height="800px" width="800px" version="1.1" id="Layer_1" xmlns="http://www.w3.org/2000/svg" xmlns:xlink="http://www.w3.org/1999/xlink" 
	 viewBox="0 0 512 512" xml:space="preserve">
<path style="fill:#FEA680;" d="M258.082,47.835v416.329C365.028,463.107,458.786,380.264,512,256
	C458.786,131.736,365.028,48.893,258.082,47.835z"/>
<path style="fill:#FFC1A6;" d="M258.082,47.835C346.078,49.129,423.193,131.905,466.989,256
	c-43.796,124.095-120.911,206.871-208.907,208.165c-0.698,0.011-1.384,0.011-2.082,0.011C148.187,464.176,53.563,381.074,0,256
	C53.563,130.926,148.187,47.824,256,47.824C256.698,47.824,257.384,47.824,258.082,47.835z"/>
<path style="fill:#FFFFFF;" d="M256,115.341c-107.816,0-202.44,56.15-256,140.659c53.56,84.509,148.184,140.659,256,140.659
	S458.44,340.509,512,256C458.44,171.491,363.816,115.341,256,115.341z"/>
<path style="fill:#02ACAB;" d="M257.384,115.352v281.296c77.048-0.731,139.275-63.42,139.275-140.648
	S334.432,116.083,257.384,115.352z"/>
<path style="fill:#42C8C6;" d="M257.384,115.352c58.402,0.979,105.517,63.567,105.517,140.648s-47.115,139.669-105.517,140.648
	c-0.461,0.011-0.923,0.011-1.384,0.011c-77.689,0-140.659-62.97-140.659-140.659S178.311,115.341,256,115.341
	C256.461,115.341,256.923,115.341,257.384,115.352z"/>
<path d="M256,182.857v146.286c40.397,0,73.143-32.746,73.143-73.143S296.397,182.857,256,182.857z"/>
<path style="fill:#4D4D4D;" d="M256,182.857c27.963,0,50.637,32.746,50.637,73.143S283.963,329.143,256,329.143
	c-40.397,0-73.143-32.746-73.143-73.143S215.603,182.857,256,182.857z"/>
<g>
	<circle style="fill:#FFFFFF;" cx="289.758" cy="256" r="8.44"/>
	<circle style="fill:#FFFFFF;" cx="256" cy="256" r="8.44"/>
	<circle style="fill:#FFFFFF;" cx="222.242" cy="256" r="8.44"/>
</g>
</svg>